<svg xmlns="http://www.w3.org/2000/svg" width="1280" height="1110" viewBox="0 0 1280 1110">
<rect width="1280" height="1110" fill="#fff"/>
<defs><marker id="ah" markerWidth="11" markerHeight="8" refX="10" refY="4" orient="auto"><path d="M0,0 L11,4 L0,8 z" fill="#333"/></marker></defs>
<rect x="40" y="28" width="1200" height="208" rx="4" fill="#fbfbfb" stroke="#d0d0d0" stroke-width="1.3"/>
<text x="54" y="50" font-family="Helvetica,Arial,sans-serif" font-size="14" fill="#666">Where topology is consumed</text>
<rect x="62" y="58" width="248" height="158" rx="4" fill="#f2f2f2" stroke="#bbb" stroke-width="1.3"/>
<text x="76" y="80" font-family="Helvetica,Arial,sans-serif" font-size="14" fill="#666">Bare metal / VM</text>
<rect x="80" y="96" width="220" height="100" rx="3" fill="#f7f7f7" stroke="#333" stroke-width="1.6"/>
<text x="190.0" y="129.66666666666666" font-family="Helvetica,Arial,sans-serif" font-size="17" fill="#111" text-anchor="middle">Slurm</text>
<text x="190.0" y="151.66666666666666" font-family="Helvetica,Arial,sans-serif" font-size="12.5" fill="#555" text-anchor="middle">topology.conf</text>
<text x="190.0" y="173.66666666666666" font-family="Helvetica,Arial,sans-serif" font-size="12.5" fill="#555" text-anchor="middle">(scheduler reads file)</text>
<rect x="360" y="58" width="860" height="158" rx="4" fill="#f2f2f2" stroke="#bbb" stroke-width="1.3"/>
<text x="374" y="80" font-family="Helvetica,Arial,sans-serif" font-size="14" fill="#666">Kubernetes</text>
<rect x="380" y="96" width="250" height="100" rx="3" fill="#f7f7f7" stroke="#333" stroke-width="1.6"/>
<text x="505.0" y="129.66666666666666" font-family="Helvetica,Arial,sans-serif" font-size="17" fill="#111" text-anchor="middle">Node labels</text>
<text x="505.0" y="151.66666666666666" font-family="Helvetica,Arial,sans-serif" font-size="12.5" fill="#555" text-anchor="middle">network.topology.nvidia.com/*</text>
<text x="505.0" y="173.66666666666666" font-family="Helvetica,Arial,sans-serif" font-size="12.5" fill="#555" text-anchor="middle">KAI · Kueue · kube-scheduler</text>
<rect x="650" y="96" width="255" height="100" rx="3" fill="#f7f7f7" stroke="#333" stroke-width="1.6"/>
<text x="777.5" y="129.66666666666666" font-family="Helvetica,Arial,sans-serif" font-size="17" fill="#111" text-anchor="middle">NFD custom resources</text>
<text x="777.5" y="151.66666666666666" font-family="Helvetica,Arial,sans-serif" font-size="12.5" fill="#555" text-anchor="middle">NodeFeature /</text>
<text x="777.5" y="173.66666666666666" font-family="Helvetica,Arial,sans-serif" font-size="12.5" fill="#555" text-anchor="middle">NodeFeatureGroup</text>
<rect x="925" y="96" width="275" height="100" rx="3" fill="#f7f7f7" stroke="#333" stroke-width="1.6"/>
<text x="1062.5" y="129.66666666666666" font-family="Helvetica,Arial,sans-serif" font-size="17" fill="#111" text-anchor="middle">Slinky ConfigMap</text>
<text x="1062.5" y="151.66666666666666" font-family="Helvetica,Arial,sans-serif" font-size="12.5" fill="#555" text-anchor="middle">topology.conf for</text>
<text x="1062.5" y="173.66666666666666" font-family="Helvetica,Arial,sans-serif" font-size="12.5" fill="#555" text-anchor="middle">Slurm on Kubernetes</text>
<rect x="40" y="400" width="1200" height="420" rx="4" fill="#fbfbfb" stroke="#d0d0d0" stroke-width="1.3"/>
<rect x="1050" y="408" width="164" height="30" fill="#76B900"/>
<text x="1132" y="430" font-family="Helvetica,Arial,sans-serif" font-size="17" fill="#111" text-anchor="middle">Topograph</text>
<rect x="96" y="470" width="214" height="74" rx="3" fill="#f7f7f7" stroke="#333" stroke-width="1.6"/>
<text x="203.0" y="512.6666666666666" font-family="Helvetica,Arial,sans-serif" font-size="17" fill="#111" text-anchor="middle">API server</text>
<rect x="430" y="470" width="214" height="74" rx="3" fill="#f7f7f7" stroke="#333" stroke-width="1.6"/>
<text x="537.0" y="512.6666666666666" font-family="Helvetica,Arial,sans-serif" font-size="17" fill="#111" text-anchor="middle">Provider</text>
<rect x="760" y="470" width="214" height="74" rx="3" fill="#f7f7f7" stroke="#333" stroke-width="1.6"/>
<text x="867.0" y="512.6666666666666" font-family="Helvetica,Arial,sans-serif" font-size="17" fill="#111" text-anchor="middle">Engine</text>
<rect x="96" y="650" width="214" height="84" rx="3" fill="#f7f7f7" stroke="#333" stroke-width="1.6"/>
<text x="203.0" y="686.6666666666666" font-family="Helvetica,Arial,sans-serif" font-size="17" fill="#111" text-anchor="middle">Node observer</text>
<text x="203.0" y="708.6666666666666" font-family="Helvetica,Arial,sans-serif" font-size="12.5" fill="#555" text-anchor="middle">K8s / Slinky only</text>
<rect x="700" y="650" width="274" height="84" rx="3" fill="#f7f7f7" stroke="#333" stroke-width="1.6"/>
<text x="837.0" y="686.6666666666666" font-family="Helvetica,Arial,sans-serif" font-size="17" fill="#111" text-anchor="middle">Node data broker</text>
<text x="837.0" y="708.6666666666666" font-family="Helvetica,Arial,sans-serif" font-size="12.5" fill="#555" text-anchor="middle">K8s / Slinky only</text>
<rect x="40" y="880" width="1200" height="196" rx="4" fill="#fbfbfb" stroke="#d0d0d0" stroke-width="1.3"/>
<text x="54" y="1062" font-family="Helvetica,Arial,sans-serif" font-size="14" fill="#666">Topology sources  (Topograph provider shown below each)</text>
<g transform="translate(70,890) scale(1.5)"><path d="M45,92 C20,92 18,66 38,60 C30,36 60,20 78,36 C88,14 128,16 132,40 C158,38 172,58 158,74 C172,80 166,92 150,92 Z" fill="#f7f7f7" stroke="#333" stroke-width="1.1"/></g>
<text x="212" y="965" font-family="Helvetica,Arial,sans-serif" font-size="14" fill="#111" text-anchor="middle">Cloud provider APIs</text>
<text x="212" y="988" font-family="Helvetica,Arial,sans-serif" font-size="11" fill="#555" text-anchor="middle">aws · gcp · oci</text>
<text x="212" y="1006" font-family="Helvetica,Arial,sans-serif" font-size="11" fill="#555" text-anchor="middle">nebius · nscale · lambdai</text>
<rect x="360" y="916" width="300" height="84" rx="3" fill="#f7f7f7" stroke="#333" stroke-width="1.6"/>
<text x="510.0" y="952.6666666666666" font-family="Helvetica,Arial,sans-serif" font-size="17" fill="#111" text-anchor="middle">GPU Operator node labels</text>
<text x="510.0" y="974.6666666666666" font-family="Helvetica,Arial,sans-serif" font-size="12.5" fill="#555" text-anchor="middle">nvidia.com/gpu.clique  ·  dra</text>
<rect x="690" y="916" width="200" height="84" rx="3" fill="#f7f7f7" stroke="#333" stroke-width="1.6"/>
<text x="790.0" y="952.6666666666666" font-family="Helvetica,Arial,sans-serif" font-size="17" fill="#111" text-anchor="middle">NVIDIA NetQ</text>
<text x="790.0" y="974.6666666666666" font-family="Helvetica,Arial,sans-serif" font-size="12.5" fill="#555" text-anchor="middle">netq</text>
<rect x="920" y="916" width="260" height="84" rx="3" fill="#f7f7f7" stroke="#333" stroke-width="1.6"/>
<text x="1050.0" y="952.6666666666666" font-family="Helvetica,Arial,sans-serif" font-size="17" fill="#111" text-anchor="middle">InfiniBand fabric</text>
<text x="1050.0" y="974.6666666666666" font-family="Helvetica,Arial,sans-serif" font-size="12.5" fill="#555" text-anchor="middle">infiniband-bm · infiniband-k8s</text>
<polyline points="150,196 150,470" fill="none" stroke="#333" stroke-width="2" marker-end="url(#ah)"/>
<text x="140" y="350" font-family="Helvetica,Arial,sans-serif" font-size="13" fill="#444" text-anchor="end">POST /v1/generate</text>
<polyline points="203,650 203,544" fill="none" stroke="#333" stroke-width="2" marker-end="url(#ah)"/>
<text x="215" y="600" font-family="Helvetica,Arial,sans-serif" font-size="13" fill="#444" text-anchor="start">node / pod change</text>
<polyline points="310,507 430,507" fill="none" stroke="#333" stroke-width="2" marker-end="url(#ah)"/>
<polyline points="644,507 760,507" fill="none" stroke="#333" stroke-width="2" marker-end="url(#ah)"/>
<text x="702" y="497" font-family="Helvetica,Arial,sans-serif" font-size="13" fill="#444" text-anchor="middle">topology graph</text>
<polyline points="867,470 867,330" fill="none" stroke="#333" stroke-width="2"/>
<polyline points="230,330 1062,330" fill="none" stroke="#333" stroke-width="2"/>
<polyline points="230,332 230,196" fill="none" stroke="#333" stroke-width="2" marker-end="url(#ah)"/>
<polyline points="505,332 505,196" fill="none" stroke="#333" stroke-width="2" marker-end="url(#ah)"/>
<polyline points="777,332 777,196" fill="none" stroke="#333" stroke-width="2" marker-end="url(#ah)"/>
<polyline points="1062,332 1062,196" fill="none" stroke="#333" stroke-width="2" marker-end="url(#ah)"/>
<text x="660" y="322" font-family="Helvetica,Arial,sans-serif" font-size="13" fill="#444" text-anchor="middle">engine output</text>
<polyline points="310,682 335,682 335,150 360,150" fill="none" stroke="#333" stroke-width="2" stroke-dasharray="6,5" marker-end="url(#ah)"/>
<text x="343" y="700" font-family="Helvetica,Arial,sans-serif" font-size="13" fill="#444" text-anchor="start">watches nodes / pods</text>
<polyline points="600,544 600,600 790,600 790,650" fill="none" stroke="#333" stroke-width="2" marker-end="url(#ah)"/>
<text x="700" y="592" font-family="Helvetica,Arial,sans-serif" font-size="13" fill="#444" text-anchor="middle">exec ibnetdiscover</text>
<polyline points="900,650 900,580 520,580 520,544" fill="none" stroke="#333" stroke-width="2" marker-end="url(#ah)"/>
<text x="730" y="572" font-family="Helvetica,Arial,sans-serif" font-size="13" fill="#444" text-anchor="middle">node annotations</text>
<polyline points="462,544 462,836 212,836 212,926" fill="none" stroke="#333" stroke-width="2" marker-end="url(#ah)"/>
<text x="330" y="828" font-family="Helvetica,Arial,sans-serif" font-size="13" fill="#444" text-anchor="middle">queries</text>
<polyline points="510,916 510,806 570,806 570,544" fill="none" stroke="#333" stroke-width="2" marker-end="url(#ah)"/>
<text x="545" y="798" font-family="Helvetica,Arial,sans-serif" font-size="13" fill="#444" text-anchor="end">clique labels</text>
<polyline points="620,544 620,884 790,884 790,916" fill="none" stroke="#333" stroke-width="2" marker-end="url(#ah)"/>
<polyline points="900,734 900,862 1050,862 1050,916" fill="none" stroke="#333" stroke-width="2" marker-end="url(#ah)"/>
<text x="985" y="854" font-family="Helvetica,Arial,sans-serif" font-size="13" fill="#444" text-anchor="middle">queries fabric</text>
</svg>